# xmcd
#
# Track frame offsets:
#	150
#	19450
#	38138
#	53385
#	71515
#	89144
#	107639
#	127172
#	142179
#	161472
#	180152
#	195402
#	213517
#	231107
#	249630
#	269085
#	295465
#
# Disc length: 3951 seconds
#
# Revision: 0
# Processed by: cddbd v1.5PL3 Copyright (c) Steve Scherf et al.
# Submitted via: audiograbber 1.83.01
#
DISCID=030f6d11
DTITLE=Various Artist - Karaoke SC1011
DYEAR=1900
DGENRE=
TTITLE0=Martina Mcbride - Blessed
TTITLE1=Jo Dee Messina And Tim Mcgraw - Bring On The Rain
TTITLE2=Reba Mcentire - I'm A Survivor
TTITLE3=Alison Krauss - Maybe
TTITLE4=Jo Dee Messina - Downtime
TTITLE5=Nickel Creek - Reasons Why
TTITLE6=Kinleys - I'm In
TTITLE7=Chely Wright - Jezebel
TTITLE8=Martina Mcbride (Vocal) - Blessed
TTITLE9=Jo Dee Messina And Tim Mcgraw (Vocal) - Bring On The Rain
TTITLE10=Reba Mcentire (Vocal) - I'm A Survivor
TTITLE11=Alison Krauss (Vocal) - Maybe
TTITLE12=Jo Dee Messina (Vocal) - Downtime
TTITLE13=Nickel Creek (Vocal) - Reasons Why
TTITLE14=Kinleys (Vocal) - I'm In
TTITLE15=Chely Wright (Vocal) - Jezebel
TTITLE16=DATA - Data Track
EXTD=
EXTT0=
EXTT1=
EXTT2=
EXTT3=
EXTT4=
EXTT5=
EXTT6=
EXTT7=
EXTT8=
EXTT9=
EXTT10=
EXTT11=
EXTT12=
EXTT13=
EXTT14=
EXTT15=
EXTT16=
PLAYORDER=
